<svg xmlns="http://www.w3.org/2000/svg" xmlns:xlink="http://www.w3.org/1999/xlink" width="500" zoomAndPan="magnify" viewBox="0 0 375 374.999991" height="500" preserveAspectRatio="xMidYMid meet" version="1.0"><defs><clipPath id="id1"><path d="M 0 0 L 375 0 L 375 372.75 L 0 372.75 Z M 0 0 " clip-rule="nonzero"/></clipPath></defs><g clip-path="url(#id1)"><path fill="rgb(100%, 56.858826%, 30.198669%)" d="M 374.964844 187.511719 C 374.964844 83.953125 291.03125 0 187.5 0 C 83.96875 0 0.0351562 83.953125 0.0351562 187.511719 C 0.0351562 281.101562 68.589844 358.675781 158.207031 372.742188 L 158.207031 241.710938 L 110.609375 241.710938 L 110.609375 187.511719 L 158.207031 187.511719 L 158.207031 146.199219 C 158.207031 99.203125 186.195312 73.246094 229.015625 73.246094 C 249.527344 73.246094 270.980469 76.910156 270.980469 76.910156 L 270.980469 123.054688 L 247.339844 123.054688 C 224.054688 123.054688 216.792969 137.507812 216.792969 152.335938 L 216.792969 187.511719 L 268.78125 187.511719 L 260.472656 241.710938 L 216.792969 241.710938 L 216.792969 372.742188 C 306.410156 358.675781 374.964844 281.101562 374.964844 187.511719 " fill-opacity="1" fill-rule="nonzero"/></g></svg>